<svg xmlns="http://www.w3.org/2000/svg" width="40" height="40" viewBox="0 0 40 40"><circle cx="20" cy="20" r="20" fill="#fbdce1"/><rect x="6" y="6" width="28" height="28" rx="7.9799999999999995" ry="7.9799999999999995" fill="#e31837"/><g transform="translate(11.32, 13.018260869565218)"><svg width="17.36" height="13.963478260869564" viewBox="0 0 1610 1295" xmlns="http://www.w3.org/2000/svg"><path xmlns="http://www.w3.org/2000/svg" fill="#ffffff" d="M775.8 515.3 476.3 883c-2.2-.4-37.4-5.9-95.8-5.8-27.9.1-53.2 1.4-76.3 3.4 57.2-35.8 110.1-100.4 109.7-196.4-.3-127.5-79.9-186.5-80.1-283.9-.3-107.2 98.6-167.8 165.4-180.4 96.3 74.2 193.4 170.8 276.6 295.4"/><path xmlns="http://www.w3.org/2000/svg" fill="#ffffff" d="M669.8 1040.8c-29-50.8-52.2-76.8-53.7-78.6 10-29.8 142.6-398.7 159.7-446.9 261.7 10.6 472.7 104.7 617.2 196.9-70.7 39.4-184.5 99.4-358.7 100.2-45.4.1-70.5-3.5-96.8-3.5-118.9.5-137.4 67.4-141 156.3-3.2 95.3-7.9 188.8-45.7 247.6-15.2-43.2-38.2-102.3-81-172"/><g xmlns="http://www.w3.org/2000/svg" fill="#ffffff"><path d="M118.2 911.4c-15.1.1-22.7-10-24.7-27.4-2-17.3-76.9-702.9-88-806.6C3.9 62.2.1 34.4.1 24.5 0 8.5 10.4.2 22.7.1 58.2 0 251.6 45.3 456.9 189.3c-59.2 16.6-166.2 78.1-165.7 205.6.4 112.8 81.1 174.8 81.5 287.9.7 184-210.7 228.5-254.5 228.6M833.9 1025.9c.9-22.3 1.2-42.6 1.7-57.7 3.3-79.8 26.1-118.8 117.1-119.1 31.3-.1 41.6 2.9 87.3 2.8 186.6-.7 312.1-69.1 392.4-113.4 101.1 70.2 161.6 134.5 173.4 153.6 2.4 3.8 3.6 8 3.7 12.3 0 7.5-4.1 14.8-12.9 19.9-8.5 5-34.5 16.6-48.2 23.1-94.3 43.6-719.7 334.8-735.5 342.1-6.5 2.9-12.4 4.5-17.1 4.6-7.6 0-13.7-3.7-18.5-11.7-3-5-6.1-12.2-9.3-20.7 54.6-65.9 63-164.4 65.9-235.8"/></g></svg></g></svg>